<?xml version="1.0" encoding="UTF-8"?>
<svg xmlns="http://www.w3.org/2000/svg" xmlns:xlink="http://www.w3.org/1999/xlink" width="1920" height="1080" viewBox="0 0 1920 1080">
<defs>
<g>
<g id="glyph-0-0">
<path d="M 5.175781 -10.460938 C 6.320312 -10.460938 7.253906 -10.183594 7.96875 -9.628906 C 8.6875 -9.070312 9.121094 -8.109375 9.265625 -6.75 L 7.605469 -6.75 C 7.503906 -7.375 7.273438 -7.898438 6.910156 -8.3125 C 6.550781 -8.726562 5.972656 -8.933594 5.175781 -8.933594 C 4.085938 -8.933594 3.308594 -8.402344 2.839844 -7.339844 C 2.535156 -6.648438 2.382812 -5.796875 2.382812 -4.785156 C 2.382812 -3.765625 2.597656 -2.910156 3.027344 -2.210938 C 3.457031 -1.515625 4.136719 -1.167969 5.058594 -1.167969 C 5.769531 -1.167969 6.332031 -1.382812 6.746094 -1.816406 C 7.160156 -2.25 7.445312 -2.84375 7.605469 -3.597656 L 9.265625 -3.597656 C 9.078125 -2.25 8.601562 -1.265625 7.84375 -0.640625 C 7.082031 -0.015625 6.109375 0.292969 4.925781 0.292969 C 3.597656 0.292969 2.539062 -0.191406 1.746094 -1.164062 C 0.957031 -2.136719 0.558594 -3.347656 0.558594 -4.804688 C 0.558594 -6.589844 0.992188 -7.976562 1.859375 -8.972656 C 2.726562 -9.964844 3.832031 -10.460938 5.175781 -10.460938 Z "/>
</g>
<g id="glyph-0-1">
<path d="M 5.289062 -1.101562 C 6.421875 -1.101562 7.199219 -1.53125 7.621094 -2.386719 C 8.039062 -3.246094 8.25 -4.199219 8.25 -5.25 C 8.25 -6.199219 8.097656 -6.972656 7.792969 -7.566406 C 7.3125 -8.503906 6.484375 -8.972656 5.308594 -8.972656 C 4.261719 -8.972656 3.503906 -8.574219 3.027344 -7.777344 C 2.554688 -6.980469 2.316406 -6.015625 2.316406 -4.890625 C 2.316406 -3.808594 2.554688 -2.90625 3.027344 -2.183594 C 3.503906 -1.460938 4.257812 -1.101562 5.289062 -1.101562 Z M 5.355469 -10.460938 C 6.664062 -10.460938 7.773438 -10.027344 8.679688 -9.152344 C 9.582031 -8.277344 10.035156 -6.992188 10.035156 -5.296875 C 10.035156 -3.65625 9.636719 -2.304688 8.839844 -1.234375 C 8.042969 -0.164062 6.804688 0.371094 5.125 0.371094 C 3.726562 0.371094 2.617188 -0.101562 1.792969 -1.050781 C 0.972656 -1.996094 0.558594 -3.265625 0.558594 -4.859375 C 0.558594 -6.570312 0.992188 -7.929688 1.859375 -8.945312 C 2.726562 -9.957031 3.894531 -10.460938 5.355469 -10.460938 Z "/>
</g>
<g id="glyph-0-2">
<rect x="0" y="0" width="0" height="0" mask="url(#mask-0)"/>
</g>
<g id="glyph-0-3">
<path d="M 0.808594 -6.292969 L 5.574219 -6.292969 L 5.574219 -4.539062 L 0.808594 -4.539062 Z "/>
</g>
<g id="glyph-0-4">
<path d="M 5.542969 -1.148438 C 6.339844 -1.148438 7.003906 -1.484375 7.535156 -2.152344 C 8.0625 -2.820312 8.328125 -3.816406 8.328125 -5.144531 C 8.328125 -5.957031 8.210938 -6.652344 7.976562 -7.234375 C 7.53125 -8.355469 6.722656 -8.914062 5.542969 -8.914062 C 4.359375 -8.914062 3.550781 -8.324219 3.113281 -7.140625 C 2.878906 -6.507812 2.761719 -5.703125 2.761719 -4.726562 C 2.761719 -3.941406 2.878906 -3.277344 3.113281 -2.726562 C 3.558594 -1.675781 4.367188 -1.148438 5.542969 -1.148438 Z M 1.121094 -10.121094 L 2.78125 -10.121094 L 2.78125 -8.773438 C 3.125 -9.234375 3.496094 -9.59375 3.902344 -9.84375 C 4.476562 -10.226562 5.15625 -10.414062 5.933594 -10.414062 C 7.085938 -10.414062 8.0625 -9.972656 8.867188 -9.089844 C 9.671875 -8.207031 10.074219 -6.945312 10.074219 -5.308594 C 10.074219 -3.09375 9.496094 -1.507812 8.335938 -0.558594 C 7.601562 0.0429688 6.746094 0.339844 5.773438 0.339844 C 5.007812 0.339844 4.363281 0.175781 3.84375 -0.160156 C 3.539062 -0.351562 3.203125 -0.675781 2.828125 -1.140625 L 2.828125 4.054688 L 1.121094 4.054688 Z "/>
</g>
<g id="glyph-0-5">
<path d="M 1.253906 -10.121094 L 2.992188 -10.121094 L 2.992188 0 L 1.253906 0 Z M 1.253906 -13.945312 L 2.992188 -13.945312 L 2.992188 -12.011719 L 1.253906 -12.011719 Z "/>
</g>
<g id="glyph-0-6">
<path d="M 1.300781 -13.945312 L 3.007812 -13.945312 L 3.007812 0 L 1.300781 0 Z "/>
</g>
<g id="glyph-0-7">
<path d="M 1.59375 -13.007812 L 3.324219 -13.007812 L 3.324219 -10.167969 L 4.945312 -10.167969 L 4.945312 -8.773438 L 3.324219 -8.773438 L 3.324219 -2.136719 C 3.324219 -1.78125 3.441406 -1.542969 3.683594 -1.425781 C 3.816406 -1.355469 4.039062 -1.320312 4.347656 -1.320312 C 4.429688 -1.320312 4.519531 -1.320312 4.613281 -1.324219 C 4.707031 -1.328125 4.820312 -1.335938 4.945312 -1.347656 L 4.945312 0 C 4.75 0.0585938 4.546875 0.0976562 4.335938 0.125 C 4.121094 0.148438 3.894531 0.160156 3.644531 0.160156 C 2.847656 0.160156 2.308594 -0.0429688 2.023438 -0.449219 C 1.738281 -0.859375 1.59375 -1.390625 1.59375 -2.042969 L 1.59375 -8.773438 L 0.21875 -8.773438 L 0.21875 -10.167969 L 1.59375 -10.167969 Z "/>
</g>
<g id="glyph-0-8">
<path d="M 1.613281 1.984375 C 2.050781 1.910156 2.359375 1.601562 2.535156 1.0625 C 2.628906 0.777344 2.675781 0.503906 2.675781 0.238281 C 2.675781 0.191406 2.675781 0.152344 2.671875 0.117188 C 2.667969 0.0820312 2.660156 0.0429688 2.648438 0 L 1.613281 0 L 1.613281 -2.070312 L 3.644531 -2.070312 L 3.644531 -0.152344 C 3.644531 0.601562 3.492188 1.261719 3.191406 1.832031 C 2.886719 2.402344 2.359375 2.753906 1.613281 2.886719 Z "/>
</g>
</g>
<image id="source-11" x="0" y="0" width="0" height="0"/>
<mask id="mask-0">
<use xlink:href="#source-11"/>
</mask>
</defs>
<g fill="rgb(100%, 100%, 100%)" fill-opacity="1">
<use xlink:href="#glyph-0-0" x="30" y="34.972656"/>
<use xlink:href="#glyph-0-1" x="40" y="34.972656"/>
<use xlink:href="#glyph-0-2" x="51" y="34.972656"/>
<use xlink:href="#glyph-0-3" x="56" y="34.972656"/>
<use xlink:href="#glyph-0-4" x="62" y="34.972656"/>
<use xlink:href="#glyph-0-5" x="73" y="34.972656"/>
<use xlink:href="#glyph-0-6" x="77" y="34.972656"/>
<use xlink:href="#glyph-0-1" x="81" y="34.972656"/>
<use xlink:href="#glyph-0-7" x="92" y="34.972656"/>
<use xlink:href="#glyph-0-8" x="97" y="34.972656"/>
</g>
</svg>
